<?xml version="1.0" encoding="utf-8"?>

<!DOCTYPE svg PUBLIC "-//W3C//DTD SVG 1.1//EN" "http://www.w3.org/Graphics/SVG/1.1/DTD/svg11.dtd">
<!-- Uploaded to: SVG Repo, www.svgrepo.com, Generator: SVG Repo Mixer Tools -->
<svg version="1.1" id="_x32_" xmlns="http://www.w3.org/2000/svg" xmlns:xlink="http://www.w3.org/1999/xlink" 
	 width="800px" height="800px" viewBox="0 0 512 512"  xml:space="preserve">
<style type="text/css">
<![CDATA[
	.st0{fill:#000000;}
]]>
</style>
<g>
	<path class="st0" d="M193.117,345.188c-12.734-6.672-26.875-10.125-41.172-10.125c-16.813-0.016-33.938,4.813-48.938,14.797
		c-12.75,8.484-22.688,19.828-29.344,32.547c-6.672,12.75-10.141,26.875-10.141,41.188c-0.016,16.797,4.828,33.922,14.813,48.922
		c8.469,12.75,19.813,22.703,32.547,29.359C123.617,508.547,137.758,512,152.07,512c16.797,0.016,33.922-4.813,48.922-14.813
		c12.75-8.469,22.703-19.813,29.344-32.547c6.688-12.734,10.141-26.859,10.141-41.172c0-16.813-4.828-33.938-14.813-48.938
		C217.195,361.781,205.852,351.844,193.117,345.188z M191.57,444.328c-3.359,6.422-8.297,12.078-14.813,16.422
		c-7.688,5.094-16.172,7.469-24.688,7.484c-7.25,0-14.453-1.766-20.875-5.141s-12.078-8.281-16.422-14.813
		c-5.094-7.688-7.469-16.172-7.484-24.688c0-7.234,1.766-14.438,5.141-20.875c3.375-6.422,8.281-12.063,14.813-16.406
		c7.688-5.094,16.172-7.484,24.703-7.5c7.234,0,14.438,1.766,20.859,5.141s12.063,8.297,16.422,14.828
		c5.094,7.672,7.469,16.156,7.484,24.688C196.711,430.703,194.945,437.906,191.57,444.328z"/>
	<path class="st0" d="M433.664,374.531c-8.469-12.75-19.813-22.688-32.531-29.344c-12.75-6.672-26.875-10.125-41.188-10.125
		c-16.813-0.016-33.938,4.813-48.922,14.797c-12.766,8.484-22.703,19.828-29.359,32.547c-6.672,12.75-10.141,26.875-10.141,41.188
		c-0.016,16.797,4.828,33.922,14.813,48.922c8.484,12.75,19.813,22.703,32.547,29.359C331.633,508.547,345.758,512,360.07,512
		c16.797,0.016,33.922-4.813,48.922-14.813c12.75-8.469,22.703-19.813,29.359-32.547c6.672-12.734,10.125-26.859,10.125-41.172
		C448.492,406.656,443.648,389.531,433.664,374.531z M399.586,444.328c-3.375,6.422-8.297,12.078-14.828,16.422
		c-7.688,5.094-16.172,7.469-24.688,7.484c-7.25,0-14.453-1.766-20.875-5.141s-12.078-8.281-16.422-14.813
		c-5.094-7.688-7.469-16.172-7.484-24.688c0-7.234,1.766-14.438,5.141-20.875c3.375-6.422,8.297-12.063,14.828-16.406
		c7.672-5.094,16.156-7.484,24.688-7.5c7.234,0,14.438,1.781,20.859,5.141c6.438,3.375,12.078,8.297,16.422,14.828
		c5.094,7.672,7.469,16.156,7.484,24.688C404.711,430.703,402.945,437.906,399.586,444.328z"/>
	<path class="st0" d="M429.164,0L256.008,256.766L82.852,0C46.914,245.094,256.008,329.719,256.008,329.719
		S465.102,245.094,429.164,0z"/>
</g>
</svg>